<svg width="26" height="27" xmlns="http://www.w3.org/2000/svg" xmlns:xlink="http://www.w3.org/1999/xlink" xmlns:svgjs="http://svgjs.com/svgjs" viewBox="0 0.505 26 25.99" fill="#f8f8f8"><svg xmlns="http://www.w3.org/2000/svg" width="26" height="27" viewBox="1.999 1.75 25.01 25"><path paint-order="stroke fill markers" fill-rule="evenodd" d="M20.187 15.5c.937 0 1.762-.513 2.187-1.288l4.476-8.113a1.245 1.245 0 0 0-1.088-1.85h-18.5l-1.175-2.5H2v2.5h2.5L9 13.738l-1.687 3.05C6.4 18.462 7.6 20.5 9.499 20.5h15V18h-15l1.376-2.5h9.312zM8.45 6.75h15.187L20.187 13h-8.775L8.45 6.75zm1.05 15a2.497 2.497 0 0 0-2.488 2.5c0 1.375 1.113 2.5 2.487 2.5 1.376 0 2.5-1.125 2.5-2.5s-1.124-2.5-2.5-2.5zm12.5 0a2.497 2.497 0 0 0-2.488 2.5c0 1.375 1.112 2.5 2.488 2.5 1.374 0 2.5-1.125 2.5-2.5s-1.126-2.5-2.5-2.5z"/></svg></svg>