<svg width="92" height="93" xmlns="http://www.w3.org/2000/svg" xmlns:xlink="http://www.w3.org/1999/xlink" xmlns:svgjs="http://svgjs.com/svgjs" viewBox="584 3943 92 93"><svg width="6" height="5" xmlns="http://www.w3.org/2000/svg" xmlns:xlink="http://www.w3.org/1999/xlink" xmlns:svgjs="http://svgjs.com/svgjs" viewBox="595 4023 6 5" x="595" y="4023"><svg width="6" height="5" xmlns="http://www.w3.org/2000/svg" xmlns:xlink="http://www.w3.org/1999/xlink" xmlns:svgjs="http://svgjs.com/svgjs" viewBox="595 4023 6 5" x="595" y="4023"><svg width="6" height="5" xmlns="http://www.w3.org/2000/svg" xmlns:xlink="http://www.w3.org/1999/xlink" xmlns:svgjs="http://svgjs.com/svgjs" viewBox="0.5 0 5 5" fill="#004cff" x="595" y="4023"><svg xmlns="http://www.w3.org/2000/svg" xmlns:xlink="http://www.w3.org/1999/xlink" width="6" height="5" viewBox="1.953 1.453 3.516 3.516"><path paint-order="stroke fill markers" fill-rule="evenodd" d="M4.954 1.968a1.77 1.77 0 0 0-1.243-.515 1.77 1.77 0 0 0-1.243.515c-.327.327-.515.78-.515 1.243 0 .462.188.916.515 1.242.327.327.78.515 1.243.515a1.77 1.77 0 0 0 1.243-.515 1.77 1.77 0 0 0 .515-1.242c0-.463-.188-.916-.515-1.243z"/></svg></svg></svg></svg><svg width="6" height="6" xmlns="http://www.w3.org/2000/svg" xmlns:xlink="http://www.w3.org/1999/xlink" xmlns:svgjs="http://svgjs.com/svgjs" viewBox="663 3975 6 6" x="663" y="3975"><svg width="6" height="6" xmlns="http://www.w3.org/2000/svg" xmlns:xlink="http://www.w3.org/1999/xlink" xmlns:svgjs="http://svgjs.com/svgjs" viewBox="663 3975 6 6" x="663" y="3975"><svg width="6" height="6" xmlns="http://www.w3.org/2000/svg" xmlns:xlink="http://www.w3.org/1999/xlink" xmlns:svgjs="http://svgjs.com/svgjs" viewBox="0 0.002 6 5.996" fill="#004cff" x="663" y="3975"><svg xmlns="http://www.w3.org/2000/svg" xmlns:xlink="http://www.w3.org/1999/xlink" width="6" height="6" viewBox="1.532 1.642 3.518 3.516"><path paint-order="stroke fill markers" fill-rule="evenodd" d="M4.533 2.157a1.766 1.766 0 0 0-1.243-.515c-.462 0-.916.187-1.243.515-.327.327-.515.78-.515 1.243 0 .462.188.915.515 1.242.327.327.781.515 1.243.515A1.765 1.765 0 0 0 5.05 3.4c0-.463-.188-.916-.517-1.243z"/></svg></svg></svg></svg><svg width="91" height="91" xmlns="http://www.w3.org/2000/svg" xmlns:xlink="http://www.w3.org/1999/xlink" xmlns:svgjs="http://svgjs.com/svgjs" viewBox="584 3944 91 91" x="584" y="3943"><svg width="91" height="91" xmlns="http://www.w3.org/2000/svg" xmlns:xlink="http://www.w3.org/1999/xlink" xmlns:svgjs="http://svgjs.com/svgjs" viewBox="584 3944 91 91" x="584" y="3944"><svg width="91" height="91" xmlns="http://www.w3.org/2000/svg" xmlns:xlink="http://www.w3.org/1999/xlink" xmlns:svgjs="http://svgjs.com/svgjs" viewBox="0.001 0 90.997 91" fill="#004cff" x="584" y="3944"><svg xmlns="http://www.w3.org/2000/svg" width="91" height="91" viewBox="1.001 2 89.997 90"><path paint-order="stroke fill markers" fill-rule="evenodd" d="M90.483 2.515A1.754 1.754 0 0 0 89.24 2L46 2.002c-.971 0-1.759.787-1.759 1.758v5.026L27.58 13.251a1.758 1.758 0 0 0-1.243 2.153l8.635 32.228-7.47 7.47a5.27 5.27 0 0 0-4.353-2.3H6.274a5.279 5.279 0 0 0-5.273 5.273v28.651A5.28 5.28 0 0 0 6.274 92H23.15a5.281 5.281 0 0 0 5.117-4.004l2.09 1.823A8.859 8.859 0 0 0 36.178 92H89.24c.972 0 1.758-.787 1.758-1.758V3.758c0-.467-.185-.914-.515-1.243zM24.906 86.727a1.76 1.76 0 0 1-1.758 1.757H6.274a1.76 1.76 0 0 1-1.758-1.757V58.075c0-.97.789-1.758 1.758-1.758h6.68v20.25a1.758 1.758 0 0 0 3.515 0v-20.25h6.68a1.76 1.76 0 0 1 1.757 1.758v28.652zm5.28-70.535l14.055-3.766v6.514l-1.178.315a1.757 1.757 0 0 0-1.243 2.153 4.738 4.738 0 0 1-3.347 5.797 1.762 1.762 0 0 0-1.242 2.156l6.852 25.372h-3.528l-1.818-7.113a1.747 1.747 0 0 0-.295-.616l-8.256-30.812zm14.055 10.809v14.832l-3.206-11.87A8.235 8.235 0 0 0 44.241 27zm25.254 61.483H36.178a5.344 5.344 0 0 1-3.512-1.316l-4.245-3.702V59.154l7.674-7.674 1.392 5.446c.2.778.9 1.322 1.704 1.322l34.56.003a2.464 2.464 0 0 1 2.46 2.46 2.464 2.464 0 0 1-2.46 2.461H56.04a1.758 1.758 0 0 0 0 3.516h23.211a2.464 2.464 0 0 1 2.461 2.46 2.464 2.464 0 0 1-2.461 2.462h-23.21a1.758 1.758 0 0 0 0 3.515H75.49a2.464 2.464 0 0 1 2.462 2.461 2.464 2.464 0 0 1-2.462 2.461H56.042a1.758 1.758 0 0 0 0 3.516h13.453a2.463 2.463 0 0 1 2.46 2.46 2.463 2.463 0 0 1-2.46 2.461zm17.987 0H74.94a5.934 5.934 0 0 0 .532-2.461c0-.877-.191-1.71-.532-2.461h.551a5.983 5.983 0 0 0 5.977-5.976c0-.962-.229-1.87-.634-2.676a5.985 5.985 0 0 0 4.395-5.761 5.947 5.947 0 0 0-1.18-3.561V43.309a1.758 1.758 0 0 0-3.515 0v20.003a5.968 5.968 0 0 0-1.282-.14h-.058a5.934 5.934 0 0 0 .533-2.46 5.983 5.983 0 0 0-5.976-5.977h-2.826c3-1.287 5.107-4.27 5.107-7.735 0-4.639-3.772-8.413-8.412-8.413-4.638 0-8.412 3.774-8.412 8.413 0 3.466 2.107 6.448 5.108 7.735h-9.609V21.31a8.276 8.276 0 0 0 6.302-6.302H74.23a8.275 8.275 0 0 0 6.303 6.302v5.465a1.758 1.758 0 1 0 3.516 0v-7.034c0-.97-.788-1.758-1.758-1.758a4.738 4.738 0 0 1-4.733-4.733c0-.97-.788-1.757-1.758-1.757H59.44c-.972 0-1.759.787-1.759 1.757a4.739 4.739 0 0 1-4.732 4.733c-.971 0-1.758.788-1.758 1.758v34.993h-3.434V5.517l39.725-.002v82.969zM67.62 51.897A4.903 4.903 0 0 1 62.723 47c0-2.7 2.197-4.897 4.897-4.897S72.517 44.3 72.517 47s-2.197 4.897-4.897 4.897z"/></svg></svg></svg></svg></svg>