<svg width="23" height="23" xmlns="http://www.w3.org/2000/svg" xmlns:xlink="http://www.w3.org/1999/xlink" xmlns:svgjs="http://svgjs.com/svgjs" fill="#f8f8f8"><svg xmlns="http://www.w3.org/2000/svg" width="23" height="23" viewBox="1.999 2 21.863 21.863"><path paint-order="stroke fill markers" fill-rule="evenodd" d="M17.625 15.75h-.988l-.35-.338a8.093 8.093 0 0 0 1.963-5.287A8.125 8.125 0 0 0 10.124 2a8.125 8.125 0 1 0 0 16.25 8.092 8.092 0 0 0 5.288-1.963l.338.35v.988L22 23.862 23.862 22l-6.237-6.25zm-7.5 0a5.618 5.618 0 0 1-5.626-5.625 5.618 5.618 0 0 1 5.625-5.626 5.618 5.618 0 0 1 5.626 5.626 5.618 5.618 0 0 1-5.626 5.625z"/></svg></svg>