<svg width="93" height="68" xmlns="http://www.w3.org/2000/svg" xmlns:xlink="http://www.w3.org/1999/xlink" xmlns:svgjs="http://svgjs.com/svgjs" viewBox="221 3956 93 68"><svg width="20" height="20" xmlns="http://www.w3.org/2000/svg" xmlns:xlink="http://www.w3.org/1999/xlink" xmlns:svgjs="http://svgjs.com/svgjs" viewBox="233 4003 20 20" x="233" y="4003"><svg width="20" height="20" xmlns="http://www.w3.org/2000/svg" xmlns:xlink="http://www.w3.org/1999/xlink" xmlns:svgjs="http://svgjs.com/svgjs" viewBox="233 4003 20 20" x="233" y="4003"><svg width="20" height="20" xmlns="http://www.w3.org/2000/svg" xmlns:xlink="http://www.w3.org/1999/xlink" xmlns:svgjs="http://svgjs.com/svgjs" fill="#004cff" x="233" y="4003"><svg xmlns="http://www.w3.org/2000/svg" xmlns:xlink="http://www.w3.org/1999/xlink" width="20" height="20" viewBox="1.749 1.25 18 18"><path paint-order="stroke fill markers" fill-rule="evenodd" d="M10.75 1.25c-4.964 0-9 4.037-9 9s4.036 9 9 9 9-4.037 9-9-4.038-9-9-9zm0 15c-3.31 0-6-2.691-6-6 0-3.31 2.69-6 6-6 3.309 0 6 2.69 6 6 0 3.309-2.691 6-6 6z"/></svg></svg></svg></svg><svg width="20" height="20" xmlns="http://www.w3.org/2000/svg" xmlns:xlink="http://www.w3.org/1999/xlink" xmlns:svgjs="http://svgjs.com/svgjs" viewBox="284 4003 20 20" x="284" y="4003"><svg width="20" height="20" xmlns="http://www.w3.org/2000/svg" xmlns:xlink="http://www.w3.org/1999/xlink" xmlns:svgjs="http://svgjs.com/svgjs" viewBox="284 4003 20 20" x="284" y="4003"><svg width="20" height="20" xmlns="http://www.w3.org/2000/svg" xmlns:xlink="http://www.w3.org/1999/xlink" xmlns:svgjs="http://svgjs.com/svgjs" fill="#004cff" x="284" y="4003"><svg xmlns="http://www.w3.org/2000/svg" xmlns:xlink="http://www.w3.org/1999/xlink" width="20" height="20" viewBox="1.749 1.25 18 18"><path paint-order="stroke fill markers" fill-rule="evenodd" d="M10.75 1.25c-4.964 0-9 4.037-9 9s4.036 9 9 9c4.963 0 9-4.037 9-9s-4.037-9-9-9zm0 15c-3.31 0-6-2.691-6-6 0-3.31 2.69-6 6-6 3.309 0 6 2.69 6 6 0 3.309-2.691 6-6 6z"/></svg></svg></svg></svg><svg width="35" height="42" xmlns="http://www.w3.org/2000/svg" xmlns:xlink="http://www.w3.org/1999/xlink" xmlns:svgjs="http://svgjs.com/svgjs" viewBox="278 3973 35 42" x="278" y="3973"><svg width="35" height="42" xmlns="http://www.w3.org/2000/svg" xmlns:xlink="http://www.w3.org/1999/xlink" xmlns:svgjs="http://svgjs.com/svgjs" viewBox="278 3973 35 42" x="278" y="3973"><svg width="35" height="42" xmlns="http://www.w3.org/2000/svg" xmlns:xlink="http://www.w3.org/1999/xlink" xmlns:svgjs="http://svgjs.com/svgjs" viewBox="0.389 0 34.222 42" fill="#004cff" x="278" y="3973"><svg xmlns="http://www.w3.org/2000/svg" xmlns:xlink="http://www.w3.org/1999/xlink" width="35" height="42" viewBox="1.75 1.25 33 40.5"><path paint-order="stroke fill markers" fill-rule="evenodd" d="M34.511 22.938l-13.5-21a1.499 1.499 0 0 0-1.262-.688H3.25a1.5 1.5 0 0 0-1.499 1.5v37.5c0 .83.67 1.5 1.5 1.5h6v-3h-4.5V4.25h14.18l12.82 19.94v14.56h-7.5v3h9c.829 0 1.5-.67 1.5-1.5v-16.5c0-.287-.082-.57-.239-.812z"/></svg></svg></svg></svg><svg width="26" height="18" xmlns="http://www.w3.org/2000/svg" xmlns:xlink="http://www.w3.org/1999/xlink" xmlns:svgjs="http://svgjs.com/svgjs" viewBox="284 3979 26 18" x="284" y="3979"><svg width="26" height="18" xmlns="http://www.w3.org/2000/svg" xmlns:xlink="http://www.w3.org/1999/xlink" xmlns:svgjs="http://svgjs.com/svgjs" viewBox="284 3979 26 18" x="284" y="3979"><svg width="26" height="18" xmlns="http://www.w3.org/2000/svg" xmlns:xlink="http://www.w3.org/1999/xlink" xmlns:svgjs="http://svgjs.com/svgjs" viewBox="0 0.063 26 17.874" fill="#004cff" x="284" y="3979"><svg xmlns="http://www.w3.org/2000/svg" xmlns:xlink="http://www.w3.org/1999/xlink" width="26" height="18" viewBox="1.749 1.25 24.001 16.5"><path paint-order="stroke fill markers" fill-rule="evenodd" d="M4.75 14.75V4.25h12v-3H3.25a1.5 1.5 0 0 0-1.5 1.5v13.5c0 .829.67 1.5 1.5 1.5h22.5v-3h-21z"/></svg></svg></svg></svg><svg width="62" height="53" xmlns="http://www.w3.org/2000/svg" xmlns:xlink="http://www.w3.org/1999/xlink" xmlns:svgjs="http://svgjs.com/svgjs" viewBox="221 3962 62 53" x="221" y="3962"><svg width="62" height="53" xmlns="http://www.w3.org/2000/svg" xmlns:xlink="http://www.w3.org/1999/xlink" xmlns:svgjs="http://svgjs.com/svgjs" viewBox="221 3962 62 53" x="221" y="3962"><svg width="62" height="53" xmlns="http://www.w3.org/2000/svg" xmlns:xlink="http://www.w3.org/1999/xlink" xmlns:svgjs="http://svgjs.com/svgjs" viewBox="0 0.15 62 52.7" fill="#004cff" x="221" y="3962"><svg xmlns="http://www.w3.org/2000/svg" xmlns:xlink="http://www.w3.org/1999/xlink" width="62" height="53" viewBox="1.749 1.75 60 51"><path paint-order="stroke fill markers" fill-rule="evenodd" d="M60.25 1.75h-57a1.5 1.5 0 0 0-1.5 1.5v48c0 .83.672 1.5 1.5 1.5h11.999v-3h-10.5v-45H58.75v45h-28.5v3h30c.83 0 1.5-.67 1.5-1.5v-48a1.5 1.5 0 0 0-1.5-1.5z"/></svg></svg></svg></svg><svg width="11" height="5" xmlns="http://www.w3.org/2000/svg" xmlns:xlink="http://www.w3.org/1999/xlink" xmlns:svgjs="http://svgjs.com/svgjs" viewBox="223 4004 11 5" x="223" y="4004"><svg width="11" height="5" xmlns="http://www.w3.org/2000/svg" xmlns:xlink="http://www.w3.org/1999/xlink" xmlns:svgjs="http://svgjs.com/svgjs" viewBox="223 4004 11 5" x="223" y="4004"><svg width="11" height="5" xmlns="http://www.w3.org/2000/svg" xmlns:xlink="http://www.w3.org/1999/xlink" xmlns:svgjs="http://svgjs.com/svgjs" viewBox="0 0.667 11 3.667" fill="#004cff" x="223" y="4004"><svg xmlns="http://www.w3.org/2000/svg" xmlns:xlink="http://www.w3.org/1999/xlink" width="11" height="5" viewBox="1.249 1.75 9 3"><path paint-order="stroke fill markers" fill-rule="evenodd" d="M1.25 1.75h9v3h-9v-3z"/></svg></svg></svg></svg><svg width="27" height="5" xmlns="http://www.w3.org/2000/svg" xmlns:xlink="http://www.w3.org/1999/xlink" xmlns:svgjs="http://svgjs.com/svgjs" viewBox="253 4004 27 5" x="253" y="4004"><svg width="27" height="5" xmlns="http://www.w3.org/2000/svg" xmlns:xlink="http://www.w3.org/1999/xlink" xmlns:svgjs="http://svgjs.com/svgjs" viewBox="253 4004 27 5" x="253" y="4004"><svg width="27" height="5" xmlns="http://www.w3.org/2000/svg" xmlns:xlink="http://www.w3.org/1999/xlink" xmlns:svgjs="http://svgjs.com/svgjs" viewBox="0 0.912 27 3.177" fill="#004cff" x="253" y="4004"><svg xmlns="http://www.w3.org/2000/svg" xmlns:xlink="http://www.w3.org/1999/xlink" width="27" height="5" viewBox="1.249 1.75 25.501 3"><path paint-order="stroke fill markers" fill-rule="evenodd" d="M1.25 1.75h25.5v3H1.25v-3z"/></svg></svg></svg></svg><svg width="8" height="5" xmlns="http://www.w3.org/2000/svg" xmlns:xlink="http://www.w3.org/1999/xlink" xmlns:svgjs="http://svgjs.com/svgjs" viewBox="304 4004 8 5" x="304" y="4004"><svg width="8" height="5" xmlns="http://www.w3.org/2000/svg" xmlns:xlink="http://www.w3.org/1999/xlink" xmlns:svgjs="http://svgjs.com/svgjs" viewBox="304 4004 8 5" x="304" y="4004"><svg width="8" height="5" xmlns="http://www.w3.org/2000/svg" xmlns:xlink="http://www.w3.org/1999/xlink" xmlns:svgjs="http://svgjs.com/svgjs" viewBox="0 0.5 8 4" fill="#004cff" x="304" y="4004"><svg xmlns="http://www.w3.org/2000/svg" xmlns:xlink="http://www.w3.org/1999/xlink" width="8" height="5" viewBox="1.25 1.75 6 3"><path paint-order="stroke fill markers" fill-rule="evenodd" d="M1.25 1.75h6v3h-6v-3z"/></svg></svg></svg></svg><svg width="55" height="5" xmlns="http://www.w3.org/2000/svg" xmlns:xlink="http://www.w3.org/1999/xlink" xmlns:svgjs="http://svgjs.com/svgjs" viewBox="227 3968 55 5" x="227" y="3968"><svg width="55" height="5" xmlns="http://www.w3.org/2000/svg" xmlns:xlink="http://www.w3.org/1999/xlink" xmlns:svgjs="http://svgjs.com/svgjs" viewBox="227 3968 55 5" x="227" y="3968"><svg width="55" height="5" xmlns="http://www.w3.org/2000/svg" xmlns:xlink="http://www.w3.org/1999/xlink" xmlns:svgjs="http://svgjs.com/svgjs" viewBox="0 0.929 55 3.143" fill="#004cff" x="227" y="3968"><svg xmlns="http://www.w3.org/2000/svg" xmlns:xlink="http://www.w3.org/1999/xlink" width="55" height="5" viewBox="1.75 1.75 52.5 3"><path paint-order="stroke fill markers" fill-rule="evenodd" d="M1.75 1.75h52.5v3H1.75v-3z"/></svg></svg></svg></svg><svg width="5" height="5" xmlns="http://www.w3.org/2000/svg" xmlns:xlink="http://www.w3.org/1999/xlink" xmlns:svgjs="http://svgjs.com/svgjs" viewBox="241 4010 5 5" x="241" y="4010"><svg width="5" height="5" xmlns="http://www.w3.org/2000/svg" xmlns:xlink="http://www.w3.org/1999/xlink" xmlns:svgjs="http://svgjs.com/svgjs" viewBox="241 4010 5 5" x="241" y="4010"><svg width="5" height="5" xmlns="http://www.w3.org/2000/svg" xmlns:xlink="http://www.w3.org/1999/xlink" xmlns:svgjs="http://svgjs.com/svgjs" viewBox="0 0 4.999 5" fill="#004cff" x="241" y="4010"><svg xmlns="http://www.w3.org/2000/svg" xmlns:xlink="http://www.w3.org/1999/xlink" width="5" height="5" viewBox="1.249 1.75 3 3"><path paint-order="stroke fill markers" fill-rule="evenodd" d="M1.25 1.75h3v3h-3v-3z"/></svg></svg></svg></svg><svg width="5" height="5" xmlns="http://www.w3.org/2000/svg" xmlns:xlink="http://www.w3.org/1999/xlink" xmlns:svgjs="http://svgjs.com/svgjs" viewBox="292 4010 5 5" x="292" y="4010"><svg width="5" height="5" xmlns="http://www.w3.org/2000/svg" xmlns:xlink="http://www.w3.org/1999/xlink" xmlns:svgjs="http://svgjs.com/svgjs" viewBox="292 4010 5 5" x="292" y="4010"><svg width="5" height="5" xmlns="http://www.w3.org/2000/svg" xmlns:xlink="http://www.w3.org/1999/xlink" xmlns:svgjs="http://svgjs.com/svgjs" viewBox="0 0 4.999 5" fill="#004cff" x="292" y="4010"><svg xmlns="http://www.w3.org/2000/svg" xmlns:xlink="http://www.w3.org/1999/xlink" width="5" height="5" viewBox="1.25 1.75 3 3"><path paint-order="stroke fill markers" fill-rule="evenodd" d="M1.25 1.75h3v3h-3v-3z"/></svg></svg></svg></svg><svg width="23" height="5" xmlns="http://www.w3.org/2000/svg" xmlns:xlink="http://www.w3.org/1999/xlink" xmlns:svgjs="http://svgjs.com/svgjs" viewBox="227 3956 23 5" x="227" y="3956"><svg width="23" height="5" xmlns="http://www.w3.org/2000/svg" xmlns:xlink="http://www.w3.org/1999/xlink" xmlns:svgjs="http://svgjs.com/svgjs" viewBox="227 3956 23 5" x="227" y="3956"><svg width="23" height="5" xmlns="http://www.w3.org/2000/svg" xmlns:xlink="http://www.w3.org/1999/xlink" xmlns:svgjs="http://svgjs.com/svgjs" viewBox="0 0.857 23 3.285" fill="#004cff" x="227" y="3956"><svg xmlns="http://www.w3.org/2000/svg" xmlns:xlink="http://www.w3.org/1999/xlink" width="23" height="5" viewBox="1.75 1.75 21 3"><path paint-order="stroke fill markers" fill-rule="evenodd" d="M1.75 1.75h21v3h-21v-3z"/></svg></svg></svg></svg><svg width="5" height="5" xmlns="http://www.w3.org/2000/svg" xmlns:xlink="http://www.w3.org/1999/xlink" xmlns:svgjs="http://svgjs.com/svgjs" viewBox="221 3956 5 5" x="221" y="3956"><svg width="5" height="5" xmlns="http://www.w3.org/2000/svg" xmlns:xlink="http://www.w3.org/1999/xlink" xmlns:svgjs="http://svgjs.com/svgjs" viewBox="221 3956 5 5" x="221" y="3956"><svg width="5" height="5" xmlns="http://www.w3.org/2000/svg" xmlns:xlink="http://www.w3.org/1999/xlink" xmlns:svgjs="http://svgjs.com/svgjs" fill="#004cff" x="221" y="3956"><svg xmlns="http://www.w3.org/2000/svg" width="5" height="5" viewBox="1.749 1.75 3 3"><path paint-order="stroke fill markers" fill-rule="evenodd" d="M1.75 1.75h2.999v3h-3v-3z"/></svg></svg></svg></svg></svg>