<svg width="29" height="29" xmlns="http://www.w3.org/2000/svg" xmlns:xlink="http://www.w3.org/1999/xlink" xmlns:svgjs="http://svgjs.com/svgjs" viewBox="0 0 28.999 29" fill="#f8f8f8"><svg xmlns="http://www.w3.org/2000/svg" width="29" height="29" viewBox="1.25 1.75 26.999 27"><path paint-order="stroke fill markers" fill-rule="evenodd" d="M14.75 1.75c-7.452 0-13.5 6.048-13.5 13.5 0 7.451 6.048 13.5 13.5 13.5 7.451 0 13.5-6.049 13.5-13.5 0-7.452-6.049-13.5-13.5-13.5zM8.093 23.727c.58-1.214 4.117-2.402 6.655-2.402 2.539 0 6.09 1.188 6.656 2.402a10.654 10.654 0 0 1-6.656 2.323c-2.51 0-4.819-.864-6.655-2.323zm15.241-1.957c-1.93-2.349-6.615-3.145-8.586-3.145-1.97 0-6.655.796-8.585 3.145a10.73 10.73 0 0 1-2.215-6.52c0-5.954 4.847-10.8 10.8-10.8 5.954 0 10.8 4.846 10.8 10.8a10.73 10.73 0 0 1-2.214 6.52zM14.75 7.15a4.712 4.712 0 0 0-4.724 4.724 4.712 4.712 0 0 0 4.724 4.726 4.712 4.712 0 0 0 4.725-4.726A4.712 4.712 0 0 0 14.75 7.15zm0 6.75a2.022 2.022 0 0 1-2.025-2.026c0-1.12.905-2.024 2.025-2.024 1.12 0 2.026.904 2.026 2.024 0 1.121-.905 2.026-2.026 2.026z"/></svg></svg>