<svg width="159" height="84" xmlns="http://www.w3.org/2000/svg" xmlns:xlink="http://www.w3.org/1999/xlink" xmlns:svgjs="http://svgjs.com/svgjs" viewBox="190 115 159 84"><svg width="156" height="71" xmlns="http://www.w3.org/2000/svg" xmlns:xlink="http://www.w3.org/1999/xlink" xmlns:svgjs="http://svgjs.com/svgjs" viewBox="0 0.933 156 69.133" fill="#004cff" x="193" y="117"><svg xmlns="http://www.w3.org/2000/svg" xmlns:xlink="http://www.w3.org/1999/xlink" width="156" height="71" viewBox="1.056 13.677 154.694 68.555"><path paint-order="stroke fill markers" fill-rule="evenodd" d="M36.204 38.46s-6.116 4.304-6.343 15.52c-.168 8.288 4.058 12.37 6.275 13.935-3.26-28.984 25.209-66.656 52.347-50.251 14.348 8.676 9.106 25.302.703 22.502-1.362-.455-2.324-1.001-2.958-1.45l-1.512 10.362 6.142-3.794c-.569 2.538-.557 4.387.305 6.849-2-1.007-4.72-1.43-6.825-.471l-1.635 11.211c.803 1.193 1.868 2.456 2.869 2.63 1.961.344 2.894-1.568 4.315-5.392 1.422-3.825 2.06-5.787 3.334-6.277 1.276-.49 3.237-.343 3.237-.343s-2.354 4.805-2.354 8.385c0 3.579.67 4.695.67 4.695s-4.005.404-7.926.698c-3.924.295-13.339 2.01-13.339 2.01s.49-.98 1.864-3.677c.225-.442.45-.88.666-1.301l3.986-27.115c-.076-.711-.173-1.307-.291-1.59-.425-1.011-2.064-1.477-2.064-1.477s.587-1.456.545-1.538l2.54-.362.013-.082 6.562-.969-.942 6.45c7.64-1.984 7.601-12.812.34-17.311C64.402 6.47 36.462 44.19 42.065 71.989c.203.77.442 1.506.71 2.043.907 1.813 1.7 2.945 1.7 2.945-11.106 2.513-21.228-9.664-20.144-18.94-2.295 3.1-5.034 7.398-5.545 14.047-.605 7.853 3.71 9.148 3.71 9.148l-1.726.172s-8.768.078-9.065-4.973c-2.699 4.553-10.65 4.455-10.65 4.455s5.976-1.992 6.71-12.579c.728-10.524 1.86-20.537-6.71-27.672 0 0 5.451.943 9.75-1.572 4.296-2.515 4.296-2.935 6.498-3.25 2.201-.314 3.25 1.468 3.25 1.468s-4.926-.944-5.452 10.063c-.362 7.626-.574 16.007-1.473 22.109 2.43-5.588 6.507-12.208 8.437-16.007 2.76-5.437 2.487-8.225 1.862-9.268-.625-1.042-1.808-1.459-1.599-2.015.169-.447 10.641-2.965 13.876-3.704zM10.426 53.764l.803-.92.92.803-.803.92-.92-.803zm130.52 19.376c-9.555 9.555-23.676 5.703-25.259-5.978-.595-4.394 1.535-13.318 4.33-16.337-6.833-.518-9.492 10.77-8.947 16.182 1.427 14.104 19.539 19.332 29.876 6.133zm-34.505-23.494c1.575-2.638 4.207-3.774 7.772-2.376l-2.546 4.322c-3.05-2.064-4.992.411-5.959 3.094-.626 3.96-1.558 7.916 4.129 8.517.114.011.352-.086.352.034l-.002 1.543c-5.044.332-9.561.95-14.532 1.815 0 0 .814-1.594 1.659-3.951.47-1.31 1.088-3.769 1.547-5.698l3.004-20.252c-.086-1.448-.23-3.126-.456-3.666-.425-1.011-2.064-1.477-2.064-1.477s.586-1.457.546-1.537l3.028-.434.002-.009 4.617-.681.031-.082 13.06-1.524c.125-.015-4.244 8.38-4.607 8.67-.363.291-1.305-.036-2.14-1.741-.835-1.705-.435-3.156-1.27-4.1-.834-.943-1.67-1.015-2.576-.29-.257.206-.584.705-.92 1.316l-2.675 18.507zm42.242-25.084c-2.324-2.163-7.3-2.922-9.974-.714-1.32 1.09-2.406 3.13-2.631 6.825-.681 11.146 16.035 22.297 12.514 36.35-2.287 9.13-9.438 13.572-17.926 15.1 10.367.888 21.295-3.697 24.45-14.783 4.106-14.425-13.08-28.831-13.439-37.858-.19-4.768 2.468-5.264 3.987-3.874 1.518 1.39 1.708 5.065 2.847 7.25 1.14 2.186 4.177 1.888 4.177 1.888s-.475-6.953 0-9.237c.475-2.285 2.278-3.675 2.278-3.675s-5.407-.316-6.283 2.728zm-22.15 34.533c.655.798 1.394 1.462 2.099 1.585 1.962.344 2.894-1.569 4.315-5.394 1.423-3.824 2.06-5.785 3.335-6.276 1.275-.49 3.236-.343 3.236-.343s-2.354 4.805-2.354 8.385.67 4.695.67 4.695-4.005.404-7.927.7c-3.923.293-13.338 2.009-13.338 2.009s.492-.98 1.864-3.678a394.294 394.294 0 0 1 1.955-3.785l3.764-25.602a5.341 5.341 0 0 0-.269-1.133c-.275-.76-.766-1.228-1.26-1.965l-.017-1.033c.022.045 1.072-.089 2.19-.244l.004-.033 6.562-.97-.006.04c1.573-.266 3.127-.535 3.109-.552l.073 1.128s-1.748 0-2.84 1.894c-.311.538-.678 1.393-1.05 2.38l-4.114 28.192zM51.827 36.52l2.886-.412.003-.027 6.562-.97-2.326 16.126c2.778 1.534 5.287 3.996 6.8 7.255l3.629-24.684 6.561-.969-5.308 36.804-6.65.88 1.118-7.609c-.25-1.383-.652-2.78-1.298-3.879-1.175-2.006-3.133-3.525-5.335-4.444l-2.5 17.325-4.04.535-.004.025-6.12.94.205-.997s1.958-.283 2.692-2.148c.415-1.052 1.394-4.89 2.17-8.041l1.26-8.567c-3.597.465-6.519 2.809-6.412 7.517-1.876-3.554-1.19-6.92-.003-8.679 1.51-2.24 4.134-3.222 7.04-3.093l1.003-6.828c-.087-1.276-.22-2.582-.415-3.045-.426-1.012-2.064-1.477-2.064-1.477s.587-1.457.546-1.538zM12.95 42.076c-.835 1.557-3.42 2.295-5.08 2.081 1.89 2.207 2.838 5.053 3.165 7.911 0 0 1.123-7.869 1.915-9.992z"/></svg></svg><svg width="63" height="18" xmlns="http://www.w3.org/2000/svg" xmlns:xlink="http://www.w3.org/1999/xlink" xmlns:svgjs="http://svgjs.com/svgjs" viewBox="0 0.177 63 17.645" fill="#262626" x="239" y="176"><svg xmlns="http://www.w3.org/2000/svg" xmlns:xlink="http://www.w3.org/1999/xlink" width="63" height="18" viewBox="1.564 1.99 60.687 16.997"><path paint-order="stroke fill markers" fill-rule="evenodd" d="M60.985 8.842c-.16.657-.466 1.2-.914 1.63-.448.43-.996.69-1.644.778-.559.078-.986-.062-1.28-.418-.31-.383-.372-.926-.183-1.63.028-.12.08-.314.154-.584.046-.159.109-.243.188-.253.08-.011.303-.05.674-.115.371-.066.596-.103.675-.114.078-.01.094.08.046.274l-.134.549c-.131.537-.044.785.263.743.245-.034.42-.235.526-.603l.178-.63c.053-.188-.082-.447-.404-.778-.542-.56-.838-.876-.89-.948-.304-.406-.41-.799-.316-1.18l.233-.951c.167-.68.469-1.244.908-1.695.47-.49 1.056-.79 1.754-.901.57-.085.977.038 1.223.372.228.315.27.767.124 1.357l-.271 1.108c-.028.112-.085.179-.175.198-.233.054-.664.113-1.289.178-.104.014-.14-.035-.113-.147.034-.17.115-.47.244-.899a.925.925 0 0 0 .024-.453c-.03-.144-.1-.208-.21-.193-.308.043-.522.31-.643.804l-.143.581c-.056.232.072.532.387.9l.892 1.023c.298.436.4.844.306 1.224l-.19.773zm-11.552 3.421c.017.12-.02.19-.108.21l-1.627.224c-.064.009-.097-.036-.104-.137-.018-.328-.042-1.104-.072-2.327-.002-.115-.01-.176-.024-.18-.008 0-.031.065-.07.193-.163.538-.364 1.343-.603 2.41-.026.112-.084.173-.171.185l-1.164.16c-.102.015-.137-.049-.102-.19l2.134-8.703c.026-.104.079-.162.157-.172.317-.051.743-.11 1.278-.177.077-.003.104.044.08.14-.37 1.358-.582 2.155-.633 2.393-.012.052-.006.076.017.073.026-.01.053-.047.084-.109.234-.485.639-1.3 1.217-2.449.059-.11.123-.17.194-.18.18-.017.436-.053.77-.106l.614-.085c.111-.015.153.03.128.134a.25.25 0 0 1-.028.069 77.978 77.978 0 0 0-1.452 2.187c-.739 1.148-1.105 1.741-1.1 1.784.132 1.201.328 2.75.585 4.653zm-11.145 1.72c-.003.044-.044.072-.123.082l-.615.085c-.298.034-.558.066-.78.097-.07.01-.102-.22-.093-.69.01-.355.029-.66.053-.917.006-.05-.031-.07-.11-.06l-.462.064a.163.163 0 0 0-.127.094c-.182.464-.406 1-.67 1.615-.05.073-.091.112-.131.117l-1.457.201c-.126.018-.166-.02-.12-.113l1.93-4.702c1.251-3.023 1.93-4.544 2.035-4.566.43-.08.857-.14 1.277-.176.093-.006.023 1.432-.211 4.314a761.372 761.372 0 0 1-.396 4.556zm-1.3-2.818c.091-.834.12-1.25.089-1.245-.04.006-.132.195-.277.568l-.273.742c-.013.023.02.034.1.034s.157-.009.23-.026c.081-.019.124-.042.131-.073zm-10.45 4.341c-.022.09-.097.147-.224.172-1.106.203-2.1.333-2.978.389-.085.004-.112-.061-.077-.195l2.143-8.747c.02-.081.074-.129.161-.14.61-.091 1.59-.224 2.944-.396.127-.017.178.02.157.109-.03.12-.08.321-.148.604a89.32 89.32 0 0 0-.176.668c-.023.093-.077.146-.165.159l-1.35.185c-.117.017-.186.066-.207.148-.008.037-.077.303-.207.796-.11.42-.187.734-.23.941-.02.083.015.124.105.127.16 0 .522-.047 1.09-.14.1-.014.145.024.13.112-.025.133-.09.384-.195.752-.12.428-.19.679-.208.754-.026.104-.082.162-.168.174l-1.065.147c-.08.012-.141.074-.183.186-.116.315-.268.904-.456 1.765-.023.095.033.142.172.137l1.302-.18c.126-.017.177.023.153.12a59.374 59.374 0 0 0-.32 1.353zm-10.355 1.341c0 .159-.062.25-.181.274-.154.036-.615.095-1.382.18-.087.011-.114-.082-.081-.281.085-.503.205-1.063.356-1.683.276-1.128.205-1.662-.212-1.605a.242.242 0 0 0-.143.02c-.06.03-.108.115-.143.258a397.504 397.504 0 0 1-.77 3.093c-.047.193-.115.3-.204.32a7.311 7.311 0 0 1-1.225.19c-.092.005-.113-.096-.061-.306l2.11-8.611c.034-.134.12-.212.265-.231.435-.06 1.032-.146 1.788-.257.493-.069.886-.029 1.18.118.319.166.436.424.349.784l-.552 2.205c-.09.366-.281.694-.574.986-.204.209-.412.36-.626.454-.07.032-.106.058-.112.081-.003.014.024.029.082.043a.812.812 0 0 1 .405.215c.296.253.3.97.01 2.147-.185.755-.277 1.289-.28 1.606zm-.03-6.596c.121-.493.005-.704-.347-.633a1.35 1.35 0 0 1-.184.046c-.07.01-.122.079-.153.205l-.48 1.962c-.051.207-.022.307.086.3a.486.486 0 0 0 .141-.02.566.566 0 0 0 .417-.295c.153-.252.327-.774.52-1.565zM7.326 9.65c-.122.5-.22.882-.291 1.144-.017.067-.09.117-.22.15-.355.049-.841.119-1.46.211a.221.221 0 0 0-.18.177l-.482 1.97c-.028.113-.002.163.077.152.172-.016.571-.079 1.2-.187.112-.016.159.025.143.121-.043.294-.162.783-.36 1.467-.019.075-.067.118-.145.128-.287.033-.695.09-1.222.169a.23.23 0 0 0-.176.165c-.08.263-.211.782-.393 1.558-.27 1.098-.41 1.668-.42 1.713-.024.097-.092.158-.203.18-.555.127-1.057.2-1.508.218-.1.007-.139-.039-.115-.135l2.13-8.69c.029-.112.105-.177.231-.195a70.3 70.3 0 0 1 1.717-.236l1.536-.201c.118-.017.165.024.141.12z"/></svg></svg><svg width="48" height="15" xmlns="http://www.w3.org/2000/svg" xmlns:xlink="http://www.w3.org/1999/xlink" xmlns:svgjs="http://svgjs.com/svgjs" viewBox="0 0.798 48 13.403" fill="#262626" x="190" y="184"><svg xmlns="http://www.w3.org/2000/svg" xmlns:xlink="http://www.w3.org/1999/xlink" width="48" height="15" viewBox="1.249 2.127 46.564 13.002"><path paint-order="stroke fill markers" fill-rule="evenodd" d="M47.232 4.944l-.776 1.843-44.43 5.336s45.11-7.373 45.206-7.179zm.582-2.813l-.776 1.843L2.608 9.31S47.716 1.937 47.813 2.13zm-1.358 5.82l-.776 1.844L1.25 15.13S46.357 7.758 46.455 7.95z"/></svg></svg><svg width="36" height="24" xmlns="http://www.w3.org/2000/svg" xmlns:xlink="http://www.w3.org/1999/xlink" xmlns:svgjs="http://svgjs.com/svgjs" viewBox="0 0.524 36 22.952" fill="#262626" x="196" y="115"><svg xmlns="http://www.w3.org/2000/svg" width="36" height="24" viewBox="1.165 1.414 34.363 21.909"><path paint-order="stroke fill markers" fill-rule="evenodd" d="M8.669 10.89l-1.74 11.736c-.4.993-2.353.963-2.301-.335L6.26 11.285c-1.89.003-3.673-.829-5.095-3.111L3.14 6.946c2.045 3.286 5.685 1.715 8.67-.142.844-.527 1.603-1.05 2.285-1.518l.693-.473c1.26-.854 2.566-1.676 3.89-2.291 1.397-.65 2.83-1.078 4.283-1.106 3.876-.074 5.664 2.455 6.473 4.47-.705.304-1.363.8-1.94 1.452-.453-1.45-1.616-3.659-4.497-3.604-1.08.02-2.21.369-3.345.897-1.207.56-2.406 1.315-3.565 2.1l-.674.465a62.475 62.475 0 0 1-2.376 1.58c-1.38.859-2.874 1.657-4.367 2.114zm22.975-4.074c1.412.193 2.533 1.205 3.202 2.686.59 1.303.833 3.006.589 4.799h-.001c-.245 1.797-.936 3.375-1.854 4.476-1.039 1.245-2.388 1.92-3.797 1.727h-.001c-1.413-.191-2.532-1.204-3.202-2.684-.59-1.303-.832-3.007-.588-4.8l.005-.037c.249-1.78.936-3.345 1.848-4.438 1.04-1.246 2.39-1.92 3.799-1.729zm-1.861 13.688h-.001m2.946-10.048c-.342-.757-.834-1.263-1.393-1.339-.563-.077-1.174.28-1.707.919-.655.784-1.152 1.944-1.336 3.293l-.005.036c-.176 1.338-.006 2.576.411 3.5.343.757.834 1.264 1.393 1.34.563.077 1.174-.28 1.707-.92.655-.783 1.152-1.942 1.336-3.29v-.002c.183-1.352.016-2.604-.406-3.537zM13.617 12.347l-1.032 5.338 3.614-4.91 1.116-1.412.824 1.604 1.892 3.683 2.68-9.053c.759-1.635 2.586-.675 2.228.654l-2.718 9.185c-.403 1.36-.698 4.04-2.366 4.04L16.9 15.625c-2.487 3.143-3.585 5.957-7.368 6.924l1.793-10.573c.822-2.113 2.602-.908 2.292.372z"/></svg></svg></svg>