<svg width="48" height="48" xmlns="http://www.w3.org/2000/svg" xmlns:xlink="http://www.w3.org/1999/xlink" xmlns:svgjs="http://svgjs.com/svgjs" viewBox="1292 662 48 48"><svg width="48" height="48" xmlns="http://www.w3.org/2000/svg" xmlns:xlink="http://www.w3.org/1999/xlink" xmlns:svgjs="http://svgjs.com/svgjs" viewBox="0 0 47.999 48" fill="#004cff" x="1292" y="662"><svg xmlns="http://www.w3.org/2000/svg" xmlns:xlink="http://www.w3.org/1999/xlink" width="48" height="48" viewBox="1.75 1.904 46.006 46.007"><path paint-order="stroke fill markers" fill-rule="evenodd" d="M13 1.904h23.507a11.24 11.24 0 0 1 11.249 11.25V36.66a11.24 11.24 0 0 1-11.25 11.25H13A11.24 11.24 0 0 1 1.75 36.66V13.154A11.24 11.24 0 0 1 13 1.904z"/></svg></svg><svg width="19" height="21" xmlns="http://www.w3.org/2000/svg" xmlns:xlink="http://www.w3.org/1999/xlink" xmlns:svgjs="http://svgjs.com/svgjs" viewBox="1306 676 19 21" x="1306" y="676"><svg width="19" height="21" xmlns="http://www.w3.org/2000/svg" xmlns:xlink="http://www.w3.org/1999/xlink" xmlns:svgjs="http://svgjs.com/svgjs" viewBox="0.336 0 18.328 21" fill="#fff" x="1306" y="676"><svg xmlns="http://www.w3.org/2000/svg" width="19" height="21" viewBox="1.552 1.049 17.416 19.956"><path paint-order="stroke fill markers" fill-rule="evenodd" d="M10.26 14.357l-6.663 6.647-2.045-2.045 8.708-8.71 8.708 8.71-2.047 2.045-6.661-6.647zm0-9.2l-6.663 6.647-2.045-2.047 8.708-8.708 8.708 8.708-2.047 2.047-6.661-6.648z"/></svg></svg></svg></svg>